<?xml version="1.0" encoding="utf-8"?>
<!-- Generator: Adobe Illustrator 16.0.0, SVG Export Plug-In . SVG Version: 6.00 Build 0)  -->
<!DOCTYPE svg PUBLIC "-//W3C//DTD SVG 1.1//EN" "http://www.w3.org/Graphics/SVG/1.1/DTD/svg11.dtd">
<svg version="1.1" id="Layer_1" xmlns="http://www.w3.org/2000/svg" xmlns:xlink="http://www.w3.org/1999/xlink" x="0px" y="0px"
	 width="200px" height="77.474px" viewBox="0 61.661 200 77.474" enable-background="new 0 61.661 200 77.474" xml:space="preserve"
	>
<rect x="5.573" y="113.525" fill="#F7A800" width="128.57" height="1.999"/>
<polygon fill="#F7A800" points="195.441,113.525 151.271,113.525 151.245,115.524 195.441,115.524 "/>
<path fill="#FFFFFF" d="M100.677,68.406l-0.167-0.1l-0.179,0.1L82.778,78.563v15.202c-0.032,1.571,0.355,3.116,1.17,4.585
	c0.841,1.462,2.014,2.597,3.381,3.304l13.181,7.646l13.166-7.641c1.381-0.705,2.571-1.847,3.422-3.307
	c0.784-1.466,1.17-3.013,1.138-4.588V78.563L100.677,68.406z"/>
<path fill="#089046" d="M126.04,99.064h-0.097V88.626c0-1.048,0-2.785-0.171-4.163h0.171c0.437-0.046,2.927-0.183,5.048-0.183
	c5.032,0,8.396,2.34,8.396,7.126c0,4.961-3.188,7.926-8.57,7.926C128.985,99.333,127.038,99.224,126.04,99.064 M129.146,86.484
	v10.557c0.516,0.111,1.197,0.202,1.766,0.202c3.349,0,5.136-2.185,5.136-5.567c0-3.74-1.863-5.3-5.229-5.3
	C130.379,86.375,129.729,86.419,129.146,86.484"/>
<path fill="#089046" d="M140.184,94.192c0-3.503,2.564-5.383,5.665-5.383c3.272,0,5.318,1.74,5.318,5.05
	c0,3.643-2.491,5.473-5.75,5.473C142.299,99.333,140.184,97.502,140.184,94.192 M148.057,94.108c0-2.309-0.942-3.53-2.359-3.53
	c-1.727,0-2.413,1.336-2.413,3.348c0,2.33,0.916,3.644,2.413,3.644C147.384,97.569,148.057,96.142,148.057,94.108"/>
<path fill="#089046" d="M152.465,99.037c0.161-1.244,0.161-2.829,0.161-3.53v-2.83c0-0.725,0-2.309-0.252-3.708
	c0,0,0.47-0.003,0.933-0.003c2.129,0,2.147,1.312,2.147,1.312c0.727-0.883,1.779-1.491,3.098-1.491c2.221,0,3.534,1.06,3.534,3.617
	v3.104c0,0.701,0,2.286,0.179,3.53h-3.261c0.166-1.244,0.166-2.829,0.166-3.53v-2.488c0-1.497-0.435-2.104-1.771-2.104
	c-0.703,0-1.309,0.245-1.854,0.702v3.89c0,0.701,0,2.377,0.177,3.53H152.465z"/>
<path fill="#089046" d="M163.52,94.192c0-3.435,2.483-5.383,5.838-5.383c0.431,0,0.971,0.09,1.422,0.228v-0.996
	c0-0.724,0-2.399-0.271-3.714h3.195v11.199c0,1.161,0,2.295,0.154,3.536h-0.923c-1.851,0-2.023-0.997-2.017-0.997
	c-0.59,0.704-1.449,1.267-2.802,1.267C165.848,99.333,163.52,98.089,163.52,94.192 M170.779,96.891v-6.089
	c-0.352-0.139-0.811-0.224-1.333-0.224c-1.578,0-2.92,1.151-2.92,3.441c0,2.488,1.16,3.278,2.406,3.278
	C169.559,97.296,170.265,97.228,170.779,96.891"/>
<path fill="#089046" d="M175.239,94.192c0-3.414,2.126-5.383,5.318-5.383c2.292,0,4.058,1.245,4.058,4.073
	c0,0.341-0.071,0.705-0.156,0.977c-0.364,0.159-1.071,0.249-1.867,0.249h-4.344v0.176c0,2.152,1.25,3.012,2.743,3.012
	c1.519,0,2.31-0.452,2.919-0.888c0.185,0,0.274,0.212,0.274,0.617c0,0.451-0.09,0.974-0.185,1.153
	c-0.362,0.361-1.49,1.154-3.533,1.154C177.365,99.333,175.239,97.731,175.239,94.192 M178.386,92.613h3.583v-0.182
	c0-1.155-0.345-1.948-1.592-1.948C179.337,90.482,178.593,91.204,178.386,92.613 M178.685,87.564v-0.269
	c0-0.546,0.14-0.998,0.543-1.315l3.956-3.009h0.097c0,1.156-0.097,1.765-0.431,2.463l-3.988,2.129H178.685z"/>
<path fill="#66BC82" d="M22.103,89.452c-0.317-0.132-2.395-0.195-3.349-0.195h-1.2v3.821h4.231l0.062,0.059
	c0,0.315-0.128,0.644-0.334,0.826h-3.959v2.001c0,0.822,0,2.056,0.135,3.073h-1.27v-7.6c0-0.771,0-2.051-0.136-3.067h5.881
	L22.103,89.452z"/>
<path fill="#66BC82" d="M28.695,99.037c-0.812,0-0.877-0.765-0.877-0.765c-0.374,0.254-1.149,0.961-2.362,0.961
	c-1.544,0-2.383-0.956-2.383-2.628V94.29c0-0.509,0-1.545-0.075-2.561h1.172c-0.062,1.016-0.062,2.052-0.062,2.561v1.41
	c0,1.927,0.374,2.572,1.787,2.572c0.839,0,1.55-0.446,1.924-0.712v-3.27c0-0.509,0-1.545-0.066-2.561h1.167
	c-0.067,1.016-0.067,2.052-0.067,2.561v2.054c0,0.51,0,1.676,0.115,2.693H28.695z"/>
<path fill="#66BC82" d="M30.907,91.729c0.812,0,0.883,0.771,0.883,0.771c0.381-0.262,1.149-0.966,2.372-0.966
	c1.536,0,2.382,0.948,2.382,2.629v2.312c0,0.515,0,1.546,0.062,2.563h-1.174c0.069-1.017,0.069-2.048,0.069-2.563v-1.408
	c0-1.929-0.376-2.566-1.793-2.566c-0.83,0-1.537,0.442-1.917,0.703v3.271c0,0.515,0,1.546,0.065,2.563h-1.163
	c0.069-1.017,0.069-2.048,0.069-2.563v-2.05c0-0.512,0-1.679-0.119-2.695H30.907z"/>
<path fill="#66BC82" d="M69.295,91.729c0.823,0,0.885,0.771,0.885,0.771c0.378-0.262,1.149-0.966,2.362-0.966
	c1.548,0,2.514,0.948,2.514,2.629v2.312c0,0.515,0,1.546,0.066,2.563h-1.296c0.066-1.017,0.066-2.048,0.066-2.563v-1.408
	c0-1.929-0.374-2.566-1.798-2.566c-0.834,0-1.536,0.442-1.915,0.703v3.271c0,0.515,0,1.546,0.066,2.563h-1.169
	c0.069-1.017,0.069-2.048,0.069-2.563v-2.05c0-0.512,0-1.679-0.115-2.695H69.295z"/>
<path fill="#66BC82" d="M37.85,95.567c0-2.364,1.672-3.966,3.79-3.966c0.637,0,1.213,0.198,1.458,0.375v-0.908
	c0-0.506,0-1.673-0.111-2.696h1.154v8.103c0,0.515,0,1.545,0.126,2.563h-0.254c-0.784,0-0.828-0.637-0.828-0.637h-0.018
	c-0.25,0.257-0.952,0.833-2.186,0.833C39.191,99.233,37.85,97.889,37.85,95.567 M43.098,97.692v-4.81
	c-0.278-0.202-0.762-0.446-1.523-0.446c-1.546,0-2.646,1.149-2.646,3.004c0,1.875,0.908,2.892,2.314,2.892
	C42.09,98.332,42.726,98.02,43.098,97.692"/>
<path fill="#66BC82" d="M50.661,99.037c-0.792,0-0.872-0.723-0.872-0.723c-0.285,0.278-0.977,0.918-2.142,0.918
	c-1.167,0-2.18-0.576-2.18-1.918c0-1.298,1.078-2.001,2.883-2.184l1.413-0.151v-0.508c0-1.394-0.393-2.036-1.672-2.036
	c-0.965,0-1.674,0.642-1.927,1.016c-0.261-0.126-0.39-0.314-0.39-0.638c0-0.771,1.409-1.212,2.576-1.212
	c1.596,0,2.433,0.704,2.433,2.297c0,1.18-0.062,2.333-0.062,3.352c0,0.509,0,1.083,0.188,1.788H50.661z M49.765,97.627v-1.952
	l-0.964,0.094c-0.841,0.083-1.555,0.248-1.924,0.443c-0.199,0.192-0.396,0.512-0.396,0.968c0,0.825,0.525,1.278,1.41,1.278
	C48.657,98.459,49.239,98.071,49.765,97.627"/>
<path fill="#66BC82" d="M52.012,95.567c0-2.196,1.479-3.966,3.706-3.966c0.778,0,1.482,0.261,1.81,0.441
	c0,0.394-0.259,0.771-0.504,0.9c-0.664,0-0.711-0.442-1.748-0.442c-1.145,0-2.184,0.952-2.184,2.814
	c0,2.049,0.904,3.018,2.392,3.018c0.828,0,1.54-0.312,1.911-0.64c0.064,0,0.133,0.067,0.133,0.258c0,0.07,0,0.249-0.133,0.45
	c-0.195,0.257-0.959,0.833-2.12,0.833C53.157,99.233,52.012,97.759,52.012,95.567"/>
<path fill="#66BC82" d="M58.555,88.838c0-0.456,0.323-0.839,0.704-0.839c0.395,0,0.705,0.383,0.705,0.839
	c0,0.462-0.246,0.835-0.705,0.835C58.878,89.673,58.555,89.3,58.555,88.838 M58.617,99.037c0.066-1.017,0.066-2.048,0.066-2.563
	v-2.05c0-0.512,0-1.679-0.128-2.695h1.163v4.745c0,0.515,0,1.546,0.048,2.563H58.617z"/>
<path fill="#66BC82" d="M61.027,95.567c0-2.43,1.486-4.033,3.532-4.033c2.057,0,3.27,1.475,3.27,3.662
	c0,2.431-1.541,4.104-3.596,4.104C62.184,99.3,61.027,97.759,61.027,95.567 M66.658,95.375c0-2.118-0.917-3.07-2.222-3.07
	c-1.351,0-2.252,1.28-2.252,3.07c0,2.119,0.965,3.151,2.252,3.151C65.772,98.526,66.658,97.181,66.658,95.375 M63.461,90.628v-0.062
	c0-0.25,0.096-0.413,0.374-0.646l2.651-2.115h0.064c0,0.522-0.135,0.902-0.325,1.295l-2.631,1.527H63.461z"/>
<path fill="#1F9049" d="M100.51,88.787L82.778,78.563v15.202c-0.032,1.571,0.355,3.116,1.17,4.585
	c0.841,1.463,2.014,2.597,3.381,3.304l13.181,7.646V88.787z"/>
<path fill="#82B042" d="M100.51,88.787v20.514l13.166-7.641c1.381-0.705,2.571-1.847,3.422-3.307
	c0.784-1.466,1.17-3.013,1.138-4.588V78.563L100.51,88.787z"/>
<path fill="#F7A800" d="M102.93,81.699l4.893-5.979c0.455-0.618,0.585-0.539,0.244,0.195l-3.149,6.746
	c-0.337,0.731-0.021,1.019,0.711,0.713l12.359-4.958l-17.311-10.01l1.243,12.969C101.961,82.174,102.416,82.329,102.93,81.699"/>
<path fill="#F0D529" d="M96.096,82.661l-3.173-6.744c-0.312-0.729-0.179-0.814,0.295-0.197l4.89,5.979
	c0.512,0.63,0.977,0.476,1.021-0.324l1.2-12.969L83.035,78.415l12.351,4.959C96.117,83.679,96.438,83.391,96.096,82.661"/>
<path fill="#089046" d="M186.403,97.736l-0.1,1.315h-0.324l0.117-1.511v-0.073c0-0.067-0.005-0.145-0.019-0.22h0.436l0.585,1.398
	l0.617-1.398h0.412l0.12,1.805h-0.349l-0.092-1.315l-0.594,1.315h-0.26L186.403,97.736z"/>
<path fill="#089046" d="M189.378,98.367c-0.041,0.003-0.087,0.003-0.128,0.003c-0.051,0-0.138-0.003-0.199-0.014v0.694h-0.357
	v-1.172c0-0.125,0-0.392-0.037-0.633h0.011c0.149-0.009,0.445-0.029,0.64-0.029c0.457,0,0.741,0.191,0.741,0.531
	c0,0.243-0.153,0.418-0.359,0.52l0.455,0.641c0.045,0.063,0.071,0.112,0.071,0.143h-0.368L189.378,98.367z M189.051,97.475v0.649
	c0.062,0.016,0.136,0.02,0.199,0.02c0.262,0,0.452-0.12,0.452-0.364c0-0.222-0.147-0.323-0.432-0.323
	C189.209,97.457,189.112,97.466,189.051,97.475"/>
<path fill-rule="evenodd" clip-rule="evenodd" fill="#F79239" d="M136.424,121.805c2.802-15.574,10.571-6.99,14.828,4.99
	C147.647,119.339,140.446,112.349,136.424,121.805"/>
<path fill-rule="evenodd" clip-rule="evenodd" fill="#FFB819" d="M141.657,120.273c1.074,0,1.954,0.877,1.954,1.955
	c0,1.076-0.88,1.954-1.954,1.954c-1.078,0-1.955-0.878-1.955-1.954C139.702,121.15,140.579,120.273,141.657,120.273"/>
<path fill-rule="evenodd" clip-rule="evenodd" fill="#036F3A" d="M151.813,126.188h1.806l1.5,4.935l1.514-4.935h2.458l-2.684,7.15
	h-2.761l-1.9-5.074L151.813,126.188 M174.553,122.902h2.412v2.407h-2.412V122.902z M165.897,129.934v0.594h-4.99
	c0.052,0.462,0.251,0.819,0.603,1.069c0.352,0.254,0.823,0.379,1.417,0.379c0.354,0,0.732-0.045,1.129-0.145
	c0.394-0.1,0.8-0.249,1.221-0.444v1.737c-0.396,0.143-0.812,0.256-1.24,0.324c-0.429,0.07-0.876,0.111-1.347,0.111
	c-1.297,0-2.312-0.341-3.036-1.029c-0.729-0.68-1.094-1.634-1.094-2.85c0-1.104,0.336-1.986,1.006-2.635
	c0.675-0.652,1.584-0.981,2.726-0.981c1.151,0,2.043,0.334,2.669,1.004C165.584,127.745,165.897,128.692,165.897,129.934
	 M163.743,129.091c-0.048-0.48-0.205-0.854-0.456-1.128c-0.258-0.273-0.584-0.403-0.981-0.403c-0.393,0-0.713,0.13-0.964,0.403
	c-0.253,0.274-0.407,0.647-0.46,1.128H163.743z M173.728,129.203v4.156h-2.42v-3.651c0-0.558-0.098-0.972-0.298-1.243
	c-0.195-0.272-0.496-0.408-0.901-0.408c-0.424,0-0.763,0.171-1.018,0.512c-0.252,0.342-0.381,0.801-0.381,1.378v3.413h-2.439v-7.107
	h2.218v1.278c0.279-0.479,0.642-0.842,1.081-1.09c0.437-0.252,0.938-0.376,1.491-0.376c0.866,0,1.528,0.267,1.982,0.8
	C173.501,127.396,173.728,128.178,173.728,129.203 M174.529,126.252h2.438v7.107h-2.438V126.252z M182.973,126.145l-0.131,2.103
	c-0.096-0.042-0.21-0.069-0.33-0.093c-0.12-0.018-0.263-0.029-0.425-0.029c-0.582,0-1.018,0.183-1.314,0.559
	c-0.295,0.374-0.443,0.922-0.443,1.649v3.026h-2.438v-7.107h2.177v1.356c0.245-0.524,0.546-0.913,0.902-1.167
	c0.354-0.249,0.778-0.377,1.267-0.377c0.123,0,0.353,0.026,0.688,0.074C182.944,126.144,182.96,126.145,182.973,126.145"/>
<path fill-rule="evenodd" clip-rule="evenodd" fill="#036F3A" d="M151.832,126.187l-0.001,0.002l-0.058,2.124
	c-0.192-0.107-0.647-0.14-0.832-0.14c-0.583,0-1.023,0.19-1.319,0.565c-0.297,0.375-0.444,0.926-0.444,1.655v3.045h-2.451v-7.142
	h2.186v1.358c0.249-0.527,0.551-0.914,0.908-1.173c0.36-0.252,0.783-0.379,1.272-0.379c0.126,0,0.357,0.024,0.69,0.073
	L151.832,126.187 M142.097,126.104c1.289,0,2.297,0.334,3.024,0.998c0.727,0.667,1.091,1.585,1.091,2.769
	c0,1.172-0.364,2.089-1.091,2.753c-0.728,0.669-1.735,1-3.024,1c-1.284,0-2.29-0.331-3.014-1c-0.726-0.664-1.087-1.581-1.087-2.753
	c0-1.184,0.361-2.102,1.087-2.769C139.807,126.438,140.812,126.104,142.097,126.104 M142.097,127.814
	c-0.46,0-0.835,0.185-1.122,0.558c-0.289,0.376-0.432,0.865-0.432,1.483c0,0.607,0.143,1.098,0.432,1.469
	c0.287,0.373,0.662,0.561,1.122,0.561c0.472,0,0.849-0.185,1.132-0.555c0.282-0.366,0.423-0.856,0.423-1.475
	c0-0.621-0.141-1.115-0.423-1.485C142.945,127.997,142.568,127.814,142.097,127.814 M130.69,123.792h3.449
	c1.349,0,2.347,0.252,2.993,0.752c0.646,0.503,0.971,1.274,0.971,2.317c0,1.052-0.322,1.85-0.958,2.393
	c-0.636,0.547-1.563,0.821-2.783,0.821h-1.099v3.363h-2.573V123.792z M133.264,125.533v2.801h0.68c0.514,0,0.903-0.112,1.166-0.337
	c0.261-0.229,0.394-0.562,0.394-1.006c0-0.478-0.133-0.839-0.394-1.087c-0.263-0.247-0.646-0.371-1.154-0.371H133.264z"/>
<path fill="#FFFFFF" d="M183.446,125.726c0.032-0.007,0.08-0.011,0.124-0.011c0.069,0,0.114,0.014,0.145,0.04
	c0.024,0.023,0.039,0.058,0.039,0.097c0,0.065-0.042,0.109-0.094,0.127v0.002c0.038,0.014,0.062,0.05,0.073,0.102
	c0.016,0.07,0.028,0.117,0.038,0.137h-0.066c-0.008-0.014-0.019-0.057-0.032-0.119c-0.016-0.069-0.042-0.096-0.102-0.098h-0.061
	v0.217h-0.064V125.726z M183.511,125.953h0.065c0.069,0,0.113-0.038,0.113-0.095c0-0.065-0.047-0.093-0.115-0.093
	c-0.03,0-0.053,0.002-0.063,0.005V125.953z"/>
<path fill="#FFFFFF" d="M183.608,125.566c-0.221,0-0.4,0.18-0.4,0.4c0,0.222,0.18,0.401,0.4,0.401c0.223,0,0.401-0.18,0.401-0.401
	C184.01,125.746,183.831,125.566,183.608,125.566 M183.608,126.338c-0.204,0-0.371-0.166-0.371-0.371s0.167-0.371,0.371-0.371
	c0.206,0,0.372,0.166,0.372,0.371S183.814,126.338,183.608,126.338"/>
<rect y="61.661" fill="none" width="200" height="77.474"/>
</svg>
