<?xml version="1.0" encoding="utf-8"?>
<!-- Generator: Adobe Illustrator 16.0.0, SVG Export Plug-In . SVG Version: 6.00 Build 0)  -->
<!DOCTYPE svg PUBLIC "-//W3C//DTD SVG 1.1//EN" "http://www.w3.org/Graphics/SVG/1.1/DTD/svg11.dtd">
<svg version="1.1" id="Capa_1" xmlns="http://www.w3.org/2000/svg" xmlns:xlink="http://www.w3.org/1999/xlink" x="0px" y="0px"
	 width="200px" height="200px" viewBox="0 0 200 200" enable-background="new 0 0 200 200" xml:space="preserve">
<g>
	<g>
		<path fill="#B90E0D" d="M176.563,26.562H23.438C10.514,26.562,0,37.077,0,50v100c0,12.924,10.514,23.438,23.438,23.438h153.125
			C189.486,173.438,200,162.924,200,150V50C200,37.077,189.486,26.562,176.563,26.562z M184.375,150
			c0,4.309-3.505,7.813-7.813,7.813H23.438c-4.308,0-7.812-3.506-7.812-7.813V50c0-4.308,3.505-7.812,7.812-7.812h153.125
			c4.309,0,7.813,3.505,7.813,7.812V150z"/>
	</g>
</g>
<g>
	<g>
		<polygon fill="#B90E0D" points="183.049,36.304 100,98.076 16.952,36.304 7.626,48.841 100,117.549 192.374,48.841 		"/>
	</g>
</g>
</svg>
