<?xml version="1.0" encoding="utf-8"?>
<!-- Generator: Adobe Illustrator 16.0.0, SVG Export Plug-In . SVG Version: 6.00 Build 0)  -->
<!DOCTYPE svg PUBLIC "-//W3C//DTD SVG 1.1//EN" "http://www.w3.org/Graphics/SVG/1.1/DTD/svg11.dtd">
<svg version="1.1" id="Layer_1" xmlns="http://www.w3.org/2000/svg" xmlns:xlink="http://www.w3.org/1999/xlink" x="0px" y="0px"
	 viewBox="0 0 200 200" enable-background="new 0 0 200 200" xml:space="preserve">
<g>
	<path stroke="#000000" stroke-width="5" stroke-miterlimit="10" d="M180.168,31.595H19.832c-7.229,0-13.112,5.883-13.112,13.112
		v110.587c0,7.229,5.883,13.112,13.112,13.112h160.336c7.229,0,13.112-5.884,13.112-13.112V44.707
		C193.28,37.478,187.396,31.595,180.168,31.595z M187.062,155.294c0,3.802-3.091,6.892-6.894,6.892H19.832
		c-3.803,0-6.894-3.09-6.894-6.892V44.707c0-3.803,3.091-6.894,6.894-6.894h160.336c3.803,0,6.894,3.091,6.894,6.894V155.294z"/>
	<path stroke="#000000" stroke-width="5" stroke-miterlimit="10" d="M77.109,119.422l-11.312-5.777v-1.204
		c5.062-2.765,8.622-7.316,10.609-13.569c3.013-1.598,4.938-4.711,4.938-8.2v-3.109c0-2.879-1.34-5.55-3.58-7.303
		C75.825,68.506,67.623,62.548,53.36,62.548c-0.674,0-1.334,0.024-1.977,0.075c-2.687,0.22-6.62-0.013-10.024-2.301
		c-1.272-0.858-2.232-1.692-2.845-2.466c-1.045-1.334-2.802-1.8-4.359-1.16c-1.561,0.641-2.479,2.201-2.283,3.877
		c0.131,1.163,0.327,2.515,0.622,3.998c0.6,3.032,0.6,3.032-0.243,4.845c-0.317,0.687-0.709,1.524-1.169,2.652
		c-1.029,2.521-1.76,5.283-2.18,8.23c-2.208,1.757-3.526,4.413-3.526,7.264v3.109c0,3.489,1.925,6.602,4.938,8.2
		c1.987,6.255,5.547,10.808,10.609,13.569v1.169l-11.719,5.777c-4.278,2.332-6.937,6.81-6.937,11.686v4.119
		c0,2.496,0,8.339,31.093,8.339s31.093-5.843,31.093-8.339v-3.871C84.453,126.249,81.639,121.694,77.109,119.422z M78.234,134.488
		c-1.94,1.183-9.832,2.823-24.875,2.823s-22.935-1.641-24.875-2.823v-3.416c0-2.597,1.415-4.985,3.582-6.163l11.993-5.911
		c1.872-0.914,3.078-2.851,3.078-4.938v-5.606l-1.878-0.808c-4.717-2.034-7.783-5.912-9.375-11.859l-0.445-1.658l-1.635-0.509
		c-1.3-0.408-2.211-1.618-2.211-2.948v-3.109c0-1.125,0.644-2.17,1.683-2.724l1.458-0.778l0.171-1.645
		c0.308-2.916,0.958-5.605,1.934-7.99c0.414-1.011,0.765-1.767,1.051-2.385c1.055-2.264,1.437-3.433,1.173-5.83
		c3.656,2.089,8.05,2.979,12.816,2.615c0.482-0.04,0.976-0.059,1.483-0.059c11.641,0,17.325,4.216,18.435,13.675l0.193,1.623
		l1.446,0.765c1.039,0.554,1.688,1.601,1.688,2.733v3.109c0,1.331-0.912,2.54-2.214,2.945l-1.636,0.51l-0.444,1.657
		c-1.592,5.948-4.658,9.826-9.375,11.859l-1.878,0.812v5.631c0,2.081,1.15,3.955,2.997,4.897l11.738,5.999
		c2.419,1.205,3.92,3.637,3.92,6.339V134.488z"/>
	<path stroke="#000000" stroke-width="5" stroke-miterlimit="10" d="M100,78.234h31.095c1.719,0,3.107-1.39,3.107-3.109
		c0-1.72-1.389-3.11-3.107-3.11H100c-1.72,0-3.109,1.39-3.109,3.11C96.891,76.845,98.28,78.234,100,78.234z"/>
	<path stroke="#000000" stroke-width="5" stroke-miterlimit="10" d="M143.53,78.234h3.109c1.72,0,3.11-1.39,3.11-3.109
		c0-1.72-1.391-3.11-3.11-3.11h-3.109c-1.72,0-3.108,1.39-3.108,3.11C140.422,76.845,141.811,78.234,143.53,78.234z"/>
	<path stroke="#000000" stroke-width="5" stroke-miterlimit="10" d="M103.109,124.874H100c-1.72,0-3.109,1.39-3.109,3.109
		c0,1.721,1.39,3.111,3.109,3.111h3.109c1.719,0,3.109-1.391,3.109-3.111C106.219,126.264,104.828,124.874,103.109,124.874z"/>
	<path stroke="#000000" stroke-width="5" stroke-miterlimit="10" d="M121.767,124.874h-6.221c-1.719,0-3.107,1.39-3.107,3.109
		c0,1.721,1.389,3.111,3.107,3.111h6.221c1.718,0,3.107-1.391,3.107-3.111C124.874,126.264,123.484,124.874,121.767,124.874z"/>
	<path stroke="#000000" stroke-width="5" stroke-miterlimit="10" d="M137.312,124.874h-3.109c-1.719,0-3.107,1.39-3.107,3.109
		c0,1.721,1.389,3.111,3.107,3.111h3.109c1.72,0,3.11-1.391,3.11-3.111C140.422,126.264,139.031,124.874,137.312,124.874z"/>
	<path stroke="#000000" stroke-width="5" stroke-miterlimit="10" d="M155.969,124.874h-6.219c-1.72,0-3.11,1.39-3.11,3.109
		c0,1.721,1.391,3.111,3.11,3.111h6.219c1.719,0,3.109-1.391,3.109-3.111C159.078,126.264,157.688,124.874,155.969,124.874z"/>
	<path stroke="#000000" stroke-width="5" stroke-miterlimit="10" d="M166.198,125.776c-0.563,0.588-0.901,1.398-0.901,2.207
		c0,0.81,0.338,1.617,0.901,2.209c0.587,0.56,1.398,0.902,2.208,0.902c0.808,0,1.616-0.343,2.207-0.902
		c0.559-0.592,0.9-1.399,0.9-2.209c0-0.809-0.342-1.619-0.9-2.207C169.432,124.626,167.348,124.626,166.198,125.776z"/>
	<path stroke="#000000" stroke-width="5" stroke-miterlimit="10" d="M168.406,90.672H100c-1.72,0-3.109,1.39-3.109,3.109
		s1.39,3.109,3.109,3.109h68.406c1.719,0,3.107-1.39,3.107-3.109S170.125,90.672,168.406,90.672z"/>
	<path stroke="#000000" stroke-width="5" stroke-miterlimit="10" d="M168.406,109.328H100c-1.72,0-3.109,1.391-3.109,3.109
		s1.39,3.108,3.109,3.108h68.406c1.719,0,3.107-1.39,3.107-3.108S170.125,109.328,168.406,109.328z"/>
</g>
</svg>
