<?xml version="1.0" encoding="utf-8"?>
<!-- Generator: Adobe Illustrator 16.0.0, SVG Export Plug-In . SVG Version: 6.00 Build 0)  -->
<!DOCTYPE svg PUBLIC "-//W3C//DTD SVG 1.1//EN" "http://www.w3.org/Graphics/SVG/1.1/DTD/svg11.dtd">
<svg version="1.1" id="Layer_1" xmlns="http://www.w3.org/2000/svg" xmlns:xlink="http://www.w3.org/1999/xlink" x="0px" y="0px" viewBox="0 0 50 50" enable-background="new 0 0 50 50" fill="#5e9e4f" xml:space="preserve">
<g>
	<g>
		<path d="M4.785,27.656l-0.071-0.016h30.48l-9.581,9.603c-0.469,0.47-0.727,1.105-0.727,1.771c0,0.667,0.258,1.298,0.727,1.768
			l1.491,1.491c0.468,0.47,1.092,0.728,1.76,0.728c0.666,0,1.292-0.256,1.76-0.726l16.425-16.423
			c0.471-0.471,0.729-1.098,0.727-1.765c0.002-0.67-0.256-1.298-0.727-1.768L30.623,5.893c-0.468-0.468-1.094-0.726-1.76-0.726
			c-0.668,0-1.292,0.259-1.76,0.726l-1.491,1.492c-0.469,0.468-0.727,1.094-0.727,1.76c0,0.666,0.258,1.257,0.727,1.727l9.689,9.656
			H4.752c-1.374,0-2.527,1.183-2.527,2.555v2.109C2.225,26.564,3.413,27.656,4.785,27.656z"/>
	</g>
</g>
</svg>
