<?xml version="1.0" standalone="no"?>
<!DOCTYPE svg PUBLIC "-//W3C//DTD SVG 20010904//EN"
 "http://www.w3.org/TR/2001/REC-SVG-20010904/DTD/svg10.dtd">
<svg version="1.0" xmlns="http://www.w3.org/2000/svg"
 width="333.000000pt" height="245.000000pt" viewBox="0 0 333.000000 245.000000"
 preserveAspectRatio="xMidYMid meet">
<metadata>
Created by potrace 1.15, written by Peter Selinger 2001-2017
</metadata>
<g transform="translate(0.000000,245.000000) scale(0.100000,-0.100000)"
fill="#000000" stroke="none">
<path d="M186 2232 c-3 -5 18 -14 46 -21 29 -6 67 -23 85 -37 l33 -25 0 -292
c0 -161 -4 -297 -8 -303 -12 -19 -49 -34 -81 -34 -17 0 -31 -4 -31 -10 0 -6
57 -10 150 -10 93 0 150 4 150 10 0 6 -13 10 -30 10 -41 0 -77 19 -84 44 -10
36 -7 506 3 506 5 0 11 -4 13 -9 2 -5 57 -65 123 -133 66 -68 189 -194 272
-281 84 -86 157 -157 163 -157 7 0 10 112 10 329 0 181 4 341 9 354 10 25 55
47 98 47 14 0 21 4 18 10 -4 6 -65 10 -150 10 -85 0 -146 -4 -150 -10 -3 -6 4
-10 18 -10 13 0 38 -5 55 -11 46 -16 52 -52 51 -304 l0 -220 -155 160 c-86 88
-205 213 -266 278 l-111 117 -113 0 c-62 0 -115 -4 -118 -8z"/>
<path d="M1799 2129 c-25 -50 -102 -127 -135 -135 -39 -10 -27 -24 20 -24 l44
0 4 -197 c4 -215 8 -232 60 -259 63 -33 152 0 190 69 15 29 5 29 -32 2 -41
-30 -64 -31 -90 -5 -19 19 -20 33 -20 205 l0 185 70 0 c55 0 70 3 70 15 0 11
-16 15 -67 17 l-68 3 -3 83 c-2 45 -7 82 -12 82 -5 0 -19 -19 -31 -41z"/>
<path d="M1313 2010 c-17 -4 -52 -19 -77 -34 -149 -87 -156 -336 -12 -435 137
-94 320 -43 376 104 20 52 2 62 -28 16 -31 -49 -91 -81 -148 -81 -41 0 -116
30 -147 58 -29 26 -57 86 -64 137 l-6 45 203 0 203 0 -6 40 c-15 113 -153 184
-294 150z m128 -66 c16 -16 31 -44 35 -61 l7 -33 -137 0 c-149 0 -151 1 -116
58 47 77 151 95 211 36z"/>
<path d="M2198 2007 c-78 -23 -141 -81 -166 -156 -20 -57 -15 -169 9 -217 40
-83 139 -144 235 -144 84 0 178 65 216 149 24 53 9 82 -16 33 -38 -73 -137
-110 -221 -82 -79 26 -144 113 -145 193 l0 37 201 0 201 0 -7 38 c-22 122
-161 190 -307 149z m119 -47 c34 -20 46 -38 57 -82 l6 -28 -135 0 c-150 0
-155 2 -116 66 36 60 127 82 188 44z"/>
<path d="M2780 2011 c-138 -45 -208 -144 -198 -281 7 -87 42 -151 111 -197
136 -91 323 -19 372 145 9 32 -12 27 -30 -7 -25 -50 -79 -84 -140 -89 -102 -8
-170 39 -200 140 -27 93 -13 162 45 220 33 34 43 38 87 38 60 0 84 -16 98 -66
13 -47 51 -70 93 -56 58 19 35 95 -41 133 -45 24 -153 35 -197 20z"/>
<path d="M95 1348 c-4 -29 -5 -71 -3 -93 l3 -40 1533 -3 1532 -2 0 95 0 95
-1529 0 -1530 0 -6 -52z"/>
</g>
</svg>
