<?xml version="1.0" encoding="utf-8"?>
<!-- Generator: Adobe Illustrator 16.0.0, SVG Export Plug-In . SVG Version: 6.00 Build 0)  -->
<!DOCTYPE svg PUBLIC "-//W3C//DTD SVG 1.1//EN" "http://www.w3.org/Graphics/SVG/1.1/DTD/svg11.dtd">
<svg version="1.1" id="Capa_1" xmlns="http://www.w3.org/2000/svg" xmlns:xlink="http://www.w3.org/1999/xlink" x="0px" y="0px"
	 width="200px" height="200px" viewBox="0 0 200 200" enable-background="new 0 0 200 200" xml:space="preserve">
<g>
	<path fill="#B90E0D" d="M99.744,111.864c-3.934,0-6.944,3.008-6.944,6.942v21.756c0,3.936,3.008,6.942,6.944,6.942
		c3.936,0,6.943-3.008,6.943-6.942v-21.756C106.688,114.871,103.68,111.864,99.744,111.864z"/>
	<path fill="#B90E0D" d="M146.959,77.227V47.475c0-25.924-21.296-47.215-47.215-47.215c-25.922,0-47.215,21.292-47.215,47.215
		v29.751c-14.217,12.871-23.144,31.476-23.144,52.182c0,38.881,31.477,70.357,70.359,70.357c38.879,0,70.355-31.478,70.355-70.357
		C170.1,108.701,161.174,90.097,146.959,77.227z M66.416,47.475c0-18.287,15.043-33.327,33.328-33.327
		c18.281,0,33.326,15.041,33.326,33.327v19.943c-9.918-5.34-21.264-8.371-33.326-8.371c-12.062,0-23.41,3.031-33.328,8.371V47.475
		L66.416,47.475z M99.744,185.878c-31.245,0-56.474-25.228-56.474-56.47c0-31.246,25.229-56.477,56.474-56.477
		c31.242,0,56.473,25.231,56.473,56.477C156.217,160.65,130.986,185.878,99.744,185.878z"/>
</g>
</svg>
