<?xml version="1.0" encoding="utf-8"?>
<!-- Generator: Adobe Illustrator 16.0.0, SVG Export Plug-In . SVG Version: 6.00 Build 0)  -->
<!DOCTYPE svg PUBLIC "-//W3C//DTD SVG 1.1//EN" "http://www.w3.org/Graphics/SVG/1.1/DTD/svg11.dtd">
<svg version="1.1" id="Layer_1" xmlns="http://www.w3.org/2000/svg" xmlns:xlink="http://www.w3.org/1999/xlink" x="0px" y="0px" viewBox="0 0 50 50" enable-background="new 0 0 50 50" xml:space="preserve" fill="#5e9e4f">
<g>
	<g>
		<path d="M14.074,5.653C10.739,7.6,8.099,10.24,6.153,13.574C4.206,16.91,3.233,20.55,3.233,24.499
			c0,3.948,0.973,7.591,2.919,10.925c1.945,3.336,4.586,5.977,7.921,7.922c3.335,1.947,6.977,2.92,10.925,2.92
			c3.949,0,7.591-0.973,10.926-2.92c3.335-1.945,5.976-4.586,7.922-7.92c1.946-3.336,2.919-6.977,2.919-10.926
			c0-3.948-0.973-7.591-2.919-10.926C41.9,10.24,39.26,7.6,35.925,5.653s-6.977-2.919-10.926-2.919S17.408,3.707,14.074,5.653z
			 M32.736,11.151c2.362,1.38,4.232,3.25,5.612,5.611c1.379,2.362,2.068,4.94,2.068,7.737c0,2.795-0.689,5.375-2.068,7.736
			c-1.38,2.363-3.25,4.232-5.612,5.611c-2.361,1.379-4.94,2.068-7.737,2.068c-2.796,0-5.375-0.689-7.736-2.068
			c-2.362-1.379-4.233-3.25-5.612-5.611c-1.379-2.361-2.069-4.941-2.069-7.736c0-2.797,0.69-5.375,2.069-7.737
			c1.379-2.361,3.25-4.232,5.612-5.611c2.361-1.379,4.94-2.068,7.736-2.068C27.796,9.083,30.375,9.772,32.736,11.151z"/>
		<path d="M15.306,22.913c-0.188,0.227-0.282,0.454-0.282,0.68c0,0.266,0.085,0.482,0.255,0.652s0.387,0.255,0.652,0.255h5.441
			v9.977c0,0.244,0.09,0.457,0.27,0.637s0.392,0.27,0.637,0.27h5.442c0.245,0,0.458-0.09,0.638-0.27s0.269-0.393,0.269-0.637v-9.978
			h5.442c0.245,0,0.458-0.089,0.638-0.268c0.179-0.18,0.269-0.393,0.269-0.639c0-0.264-0.085-0.481-0.255-0.65l-9.069-9.07
			c-0.17-0.17-0.387-0.255-0.651-0.255s-0.481,0.085-0.652,0.255L15.306,22.913z"/>
	</g>
</g>
</svg>
