<?xml version="1.0" encoding="utf-8"?>
<!-- Generator: Adobe Illustrator 16.0.0, SVG Export Plug-In . SVG Version: 6.00 Build 0)  -->
<!DOCTYPE svg PUBLIC "-//W3C//DTD SVG 1.1//EN" "http://www.w3.org/Graphics/SVG/1.1/DTD/svg11.dtd">
<svg version="1.1" id="Layer_1" xmlns="http://www.w3.org/2000/svg" xmlns:xlink="http://www.w3.org/1999/xlink" x="0px" y="0px"
	 viewBox="0 0 200 200" enable-background="new 0 0 200 200" xml:space="preserve">
<path stroke="#000000" stroke-width="4.337" stroke-miterlimit="10" d="M75.668,48.773c0-0.124,0.083-0.229,0.19-0.245
	c4.668-0.704,13.932-1.79,23.529-1.15c11.295,0.753,19.476,3.588,24.314,8.428c1.414,1.413,3.708,1.413,5.122,0
	c1.415-1.414,1.415-3.708,0-5.123c-13.698-13.697-42.359-11.079-54.046-9.317c-3.682,0.556-6.351,3.671-6.351,7.408v8.343
	c0,2.002,1.621,3.623,3.621,3.623c2,0,3.621-1.621,3.621-3.623V48.773L75.668,48.773z"/>
<path stroke="#000000" stroke-width="4.337" stroke-miterlimit="10" d="M56.557,165.799c-2,0-3.621,1.621-3.621,3.619v15.492
	c0,2.001,1.622,3.622,3.621,3.622c2.001,0,3.622-1.621,3.622-3.622v-15.492C60.179,167.42,58.558,165.799,56.557,165.799z"/>
<path stroke="#000000" stroke-width="4.337" stroke-miterlimit="10" d="M141.752,165.799c-1.999,0-3.621,1.621-3.621,3.619v15.492
	c0,2.001,1.622,3.622,3.621,3.622c2,0,3.621-1.621,3.621-3.622v-15.492C145.373,167.42,143.752,165.799,141.752,165.799z"/>
<path stroke="#000000" stroke-width="4" stroke-miterlimit="10" d="M154.799,138.646c-5.177-2.162-21.083-7.675-21.083-7.675
	c0.074-0.996-0.251-2.01-0.978-2.773L126,121.108V109.21c2-0.588,1.171-1.191,1.854-1.829C136.361,99.403,141,88.14,141,76.479
	v-9.503c3-5.593,4-11.51,4-17.605V10.646c0-2-1.248-1.646-3.248-1.646H87.537C68.457,9,53,22.547,53,41.625v7.746
	c0,6.095,1,12.011,3,17.606v8.174c0,13.539,7,25.737,16,33.778v12.178l-6.598,7.089c-0.727,0.764-0.987,1.777-0.914,2.773
	l-22.245,8.103c-5.518,1.755-9.521,7.849-9.521,7.849c-1.859,2.974-2.722,6.46-2.722,10.112v27.876c0,2.001,0.5,3.622,2.5,3.622
	s2.5-1.621,2.5-3.622v-27.876c0-4.973,4.112-9.455,8.784-11.153l23.98-8.543l10.024,14.672c1.25,1.875,3.375,3.079,5.619,3.3
	c0.25,0.024,0.558,0.036,0.807,0.036c1.979,0,4.139-0.777,5.555-2.193L96,147.185v37.726c0,2.001,1,3.622,3,3.622s3-1.621,3-3.622
	v-37.726l6.356,5.968c1.413,1.416,3.505,2.193,5.483,2.193c0.248,0,0.596-0.01,0.846-0.036c2.243-0.221,4.293-1.425,5.544-3.3
	l9.809-14.671l24.321,8.544c4.672,1.698,8.641,6.179,8.641,11.152v27.875c0,2.003,0.5,3.623,2.5,3.623s2.5-1.62,2.5-3.623v-27.875
	c0-5.035-1.696-9.758-5.054-13.25C162.946,143.785,159.822,140.746,154.799,138.646z M63,75.152v-8.985
	c0-0.545-0.186-1.084-0.424-1.574C60.246,59.765,59,54.646,59,49.372v-7.746C59,26.542,72.451,17,87.537,17H137v32.372
	c0,5.274-0.746,10.394-3.076,15.222c-0.238,0.49,0.076,1.029,0.076,1.574v10.312c0,9.808-3.812,18.906-10.973,25.617
	c-0.895,0.838-1.758,1.622-2.716,2.354c-0.023,0.015-0.012,0.031-0.029,0.046c-6.708,5.092-15.435,7.566-24.014,7.012
	C77.9,110.316,63,94.348,63,75.152z M84.444,148.03c-0.024,0.022-0.083,0.083-0.201,0.07c-0.118-0.012-0.165-0.081-0.184-0.112
	l-11.263-16.894l3.625-3.811l17.086,11.682L84.444,148.03z M99,134.052l-18-13.407v-6.761c4,2.746,10.028,4.46,16.07,4.851
	c0.956,0.062,0.656,0.092,1.6,0.092c6.927,0,15.33-1.655,18.33-4.797v6.615L99,134.052z M114.25,147.988
	c-0.018,0.031-0.065,0.102-0.182,0.112c-0.12,0.015-0.178-0.048-0.203-0.07l-9.062-9.063l17.086-11.68l3.625,3.808L114.25,147.988z"
	/>
</svg>
