<?xml version="1.0" encoding="utf-8"?>
<!-- Generator: Adobe Illustrator 16.0.0, SVG Export Plug-In . SVG Version: 6.00 Build 0)  -->
<!DOCTYPE svg PUBLIC "-//W3C//DTD SVG 1.1//EN" "http://www.w3.org/Graphics/SVG/1.1/DTD/svg11.dtd">
<svg version="1.1" id="Layer_1" xmlns="http://www.w3.org/2000/svg" xmlns:xlink="http://www.w3.org/1999/xlink" x="0px" y="0px"
	 viewBox="0 0 200 200" enable-background="new 0 0 200 200" xml:space="preserve">
<g>
	<g>
		<path stroke="#000000" stroke-width="3.105" stroke-miterlimit="10" d="M118.944,140.287h-10.921
			c-1.612,0-2.918,1.308-2.918,2.919c0,1.612,1.306,2.918,2.918,2.918h10.921c1.614,0,2.919-1.306,2.919-2.918
			C121.863,141.595,120.559,140.287,118.944,140.287z"/>
	</g>
</g>
<g>
	<g>
		<path stroke="#000000" stroke-width="3.105" stroke-miterlimit="10" d="M183.229,109.045l-15.892-6.13l-8.104-8.103
			c-0.52-0.52-1.191-0.802-1.876-0.846v-6.447c3.819-4.072,6.538-9.228,7.636-15.037c0.681,0.03,1.367-0.024,2.046-0.163
			c3.884-0.795,6.7-4.398,6.7-8.566v-2.128c0-2.411-0.977-4.625-2.57-6.207c2.579-14.016,0.455-25.438-6.165-33.083
			c-6.402-7.395-16.72-10.929-29.833-10.22c-12.118,0.655-19.939,6.229-22.416,8.269c-1.356,0.161-3.667,0.638-6.006,2.041
			c-3.241,1.945-7.105,6.03-7.105,14.448c0,7.344,1.173,13.474,2.022,16.952c-2.848,1.389-4.753,4.395-4.753,7.833v2.095
			c0,4.168,2.819,7.771,6.703,8.566c0.678,0.139,1.365,0.194,2.046,0.163c1.098,5.809,3.816,10.965,7.634,15.037v6.447
			c-0.685,0.044-1.356,0.326-1.874,0.846l-8.103,8.103l-15.894,6.131c-1.375,0.529-2.688,1.217-3.903,2.043
			c-1.333,0.905-1.679,2.72-0.774,4.053c0.565,0.833,1.483,1.28,2.417,1.28c0.564,0,1.134-0.165,1.637-0.506
			c0.847-0.575,1.764-1.055,2.724-1.424l14.749-5.689l11.276,16.915c1.399,2.097,3.638,3.441,6.146,3.69
			c0.281,0.027,0.558,0.041,0.837,0.041c1.451,0,2.859-0.381,4.107-1.087l-2.421,54.892c-0.071,1.61,1.178,2.974,2.786,3.045
			c0.046,0.002,0.088,0.003,0.133,0.003c1.552,0,2.845-1.224,2.912-2.79l2.245-50.952h6.059l2.248,50.952
			c0.068,1.566,1.36,2.79,2.913,2.79c0.043,0,0.087-0.001,0.129-0.003c1.611-0.071,2.858-1.435,2.79-3.045l-2.421-54.892
			c1.246,0.706,2.654,1.087,4.105,1.087c0.279,0,0.558-0.014,0.835-0.041c2.508-0.249,4.75-1.594,6.147-3.69l11.277-16.915
			l14.748,5.689c2.068,0.796,3.849,2.069,5.249,3.657l-10.089,10.09c-3.647,3.646-5.654,8.492-5.654,13.648v41.495
			c0,1.612,1.308,2.919,2.919,2.919c1.612,0,2.918-1.307,2.918-2.919v-41.495c0-3.596,1.401-6.978,3.943-9.521l8.855-8.856
			c0.356,1.306,0.521,2.678,0.466,4.079l-2.261,55.676c-0.064,1.61,1.188,2.968,2.798,3.034c0.041,0.002,0.079,0.002,0.12,0.002
			c1.557,0,2.851-1.229,2.915-2.8l2.261-55.675C195.898,119.566,190.939,112.02,183.229,109.045z M111.377,71.278
			c-0.517-2.802-3.111-4.838-5.911-4.631c-0.223,0.016-0.45,0-0.68-0.047c-1.161-0.237-2.035-1.462-2.035-2.848v-2.095
			c0-1.354,0.905-2.573,2.06-2.776c0.975-0.171,1.908,0.187,2.498,0.957c0.534,0.698,1.25,1.198,2.066,1.444
			c1.196,0.361,2.513,0.149,3.526-0.566c1.826-1.289,3.434-2.863,4.786-4.679c0.961-1.293,0.692-3.122-0.602-4.083
			c-1.292-0.962-3.12-0.693-4.083,0.6c-0.674,0.906-1.435,1.729-2.271,2.456c-0.926-0.791-2.007-1.363-3.165-1.69
			c-0.751-2.873-2.085-9.026-2.085-16.448c0-4.471,1.377-7.611,4.096-9.334c2.12-1.345,4.363-1.399,4.361-1.399
			c0.747,0,1.473-0.294,2.014-0.806c0.072-0.068,7.246-6.725,19.532-7.389c11.248-0.607,19.929,2.232,25.108,8.212
			c5.22,6.027,6.957,15.281,5.071,26.863c-0.781-0.028-1.638,0.031-2.489,0.173l-2.741-6.585c-0.56-1.343-2.026-2.069-3.433-1.701
			c-0.272,0.07-27.223,6.903-38.522-7.167c-1.01-1.256-2.848-1.458-4.105-0.448c-1.255,1.009-1.456,2.846-0.445,4.104
			c11.538,14.366,34.438,11.242,42.06,9.717l2.121,5.092c0.91,2.189,3.242,3.384,5.542,2.842c0.944-0.222,1.845-0.227,2.184-0.16
			c1.182,0.235,2.069,1.413,2.069,2.739v2.128c0,1.386-0.875,2.61-2.034,2.847c-0.23,0.048-0.459,0.063-0.68,0.047
			c-2.799-0.204-5.396,1.829-5.909,4.631c-2.124,11.559-12.197,19.948-23.953,19.948C123.572,91.227,113.498,82.837,111.377,71.278z
			 M124.322,122.866c-0.741,0.742-1.602,0.776-2.049,0.732c-0.446-0.044-1.284-0.248-1.865-1.12l-11.359-17.04l4.568-4.568
			l17.44,15.261L124.322,122.866z M132.556,126.722l0.176-4.011l2.596-2.596l2.596,2.596l0.176,4.011H132.556z M135.327,112.11
			l-16.194-14.17v-5.585c4.709,2.994,10.279,4.708,16.194,4.708c5.916,0,11.486-1.714,16.194-4.708v5.585L135.327,112.11z
			 M150.246,122.479c-0.58,0.872-1.417,1.076-1.864,1.12c-0.448,0.044-1.308,0.01-2.049-0.732l-6.736-6.735l17.441-15.261
			l4.567,4.568L150.246,122.479z"/>
	</g>
</g>
<g>
	<g>
		<path stroke="#000000" stroke-width="3.105" stroke-miterlimit="10" d="M97.185,124.34l-14.25-6.221l-7.79-7.79
			c-0.522-0.522-1.193-0.802-1.875-0.846v-4.592c6.657-4.374,11.529-11.332,13.095-19.623c0.766,0.034,1.541-0.039,2.303-0.22
			c3.734-0.884,6.444-4.462,6.444-8.509v-2.128c0-2.956-1.467-5.616-3.74-7.177c0.669-2.648,1.01-5.357,1.01-8.085
			c0-12.09-6.536-22.74-16.387-28.854c-0.105-10.091-8.718-18.271-19.295-18.271c-10.578,0-19.19,8.18-19.296,18.271
			C27.551,36.41,21.016,47.06,21.016,59.15c0,2.72,0.339,5.421,1.003,8.062c-2.272,1.553-3.734,4.225-3.734,7.232v2.096
			c0,4.047,2.71,7.625,6.444,8.509c0.763,0.181,1.538,0.254,2.304,0.22c1.565,8.291,6.438,15.249,13.095,19.623v4.592
			c-0.683,0.044-1.354,0.323-1.876,0.846l-7.789,7.79l-14.25,6.221c-7.25,3.164-11.897,10.602-11.562,18.507l1.724,40.659
			c0.066,1.568,1.358,2.795,2.914,2.795c0.042,0,0.084,0,0.126-0.002c1.61-0.067,2.86-1.429,2.792-3.041l-1.723-40.66
			c-0.111-2.62,0.57-5.163,1.85-7.35l7.66,9.19c2.421,2.905,3.753,6.589,3.753,10.368v28.575c0,1.612,1.307,2.919,2.918,2.919
			s2.918-1.307,2.918-2.919v-28.575c0-5.144-1.814-10.152-5.106-14.102l-8.143-9.774c0.692-0.477,1.428-0.899,2.214-1.242
			l12.419-5.421l8.776,14.245c0.867,1.406,2.299,2.36,3.932,2.616c0.293,0.048,0.587,0.07,0.881,0.07
			c1.333,0,2.633-0.474,3.663-1.353l5.562-4.745v48.28c0,1.612,1.307,2.919,2.918,2.919c1.612,0,2.918-1.307,2.918-2.919v-48.28
			l5.561,4.746c1.03,0.879,2.33,1.353,3.664,1.353c0.292,0,0.587-0.023,0.88-0.07c1.633-0.255,3.065-1.211,3.931-2.617l8.777-14.245
			l12.42,5.422c0.786,0.342,1.521,0.765,2.214,1.242l-8.143,9.773c-3.293,3.949-5.107,8.959-5.107,14.102v28.576
			c0,1.612,1.308,2.92,2.918,2.92c1.612,0,2.918-1.308,2.918-2.92v-28.576c0-3.779,1.333-7.462,3.753-10.367l7.659-9.191
			c1.282,2.188,1.961,4.729,1.852,7.35l-1.724,40.661c-0.067,1.611,1.182,2.973,2.794,3.04c0.04,0.002,0.081,0.004,0.123,0.004
			c1.557,0,2.849-1.228,2.915-2.795l1.723-40.661C109.081,134.942,104.436,127.504,97.185,124.34z M56.699,17.861
			c6.209,0,11.448,3.961,12.997,9.328c-4.029-1.521-8.414-2.357-12.997-2.357c-4.584,0-8.967,0.836-12.996,2.357
			C45.251,21.822,50.49,17.861,56.699,17.861z M32.747,84.065c-0.515-2.803-3.114-4.838-5.91-4.632
			c-0.248,0.017-0.504-0.003-0.762-0.064c-1.113-0.264-1.952-1.48-1.952-2.83v-2.096c0-1.354,0.905-2.573,2.059-2.776
			c0.974-0.171,1.907,0.187,2.497,0.957c0.535,0.698,1.25,1.199,2.067,1.445c1.195,0.361,2.514,0.149,3.526-0.567
			c1.798-1.268,3.387-2.815,4.724-4.596c0.968-1.289,0.708-3.118-0.582-4.086c-1.289-0.967-3.118-0.707-4.086,0.582
			c-0.662,0.881-1.406,1.683-2.226,2.394c-1.249-1.067-2.779-1.736-4.404-1.938c-0.559-2.198-0.845-4.446-0.845-6.708
			c0-15.704,13.389-28.48,29.847-28.48c16.458,0,29.846,12.776,29.846,28.48c0,2.257-0.285,4.5-0.841,6.694
			c-0.768,0.062-1.548,0.187-2.271,0.374l-2.194-1.804c-1.103-0.907-2.49-1.36-3.895-1.276c-4.29,0.253-26.259,0.833-37.53-12.656
			c-1.034-1.237-2.874-1.401-4.111-0.369c-1.237,1.034-1.402,2.874-0.368,4.111c5.559,6.652,13.712,11.151,24.233,13.371
			c8.056,1.699,15.216,1.535,18.021,1.375l3.423,2.814c0.942,0.775,2.263,0.885,3.318,0.271c0.495-0.27,2.152-0.527,2.876-0.383
			c1.181,0.234,2.069,1.412,2.069,2.739v2.128c0,1.35-0.839,2.566-1.952,2.83c-0.258,0.061-0.514,0.083-0.762,0.064
			c-2.794-0.203-5.395,1.829-5.91,4.632c-2.123,11.559-12.197,19.949-23.952,19.949C44.943,104.014,34.87,95.624,32.747,84.065z
			 M44.598,135.265l-8.778-14.249l4.497-4.496l12.085,12.087L44.598,135.265z M56.699,124.647l-10.734-10.733v-6.037
			c3.351,1.274,6.972,1.974,10.734,1.974s7.383-0.699,10.733-1.974v6.038L56.699,124.647z M68.799,135.265l-7.803-6.658
			l12.084-12.087l4.497,4.496L68.799,135.265z"/>
	</g>
</g>
<g>
	<g>
		<path stroke="#000000" stroke-width="3.105" stroke-miterlimit="10" d="M44.743,153.161h-8.192c-1.611,0-2.918,1.305-2.918,2.918
			c0,1.611,1.308,2.918,2.918,2.918h8.192c1.611,0,2.918-1.307,2.918-2.918C47.661,154.466,46.354,153.161,44.743,153.161z"/>
	</g>
</g>
</svg>
